<svg width="166" height="98" viewBox="0 0 166 98" fill="none" xmlns="http://www.w3.org/2000/svg">
<path d="M48.1038 81.0164H35.5408V33.905C35.5408 26.0083 39.2498 22.0599 46.668 22.0599H53.3085C57.6756 22.0599 60.7864 23.4957 62.641 26.3672C64.3759 23.4957 67.4867 22.0599 71.9735 22.0599H78.614C86.0321 22.0599 89.7412 26.0083 89.7412 33.905V81.0164H77.1782V32.8282C77.1782 32.3496 76.9987 31.9309 76.6398 31.5719C76.3407 31.213 75.9518 31.0335 75.4732 31.0335H70.6275C70.1489 31.0335 69.7301 31.213 69.3712 31.5719C69.0721 31.9309 68.9225 32.3496 68.9225 32.8282V81.0164H56.3595V32.8282C56.3595 32.3496 56.18 31.9309 55.8211 31.5719C55.5219 31.213 55.1331 31.0335 54.6545 31.0335H49.8088C49.3302 31.0335 48.9114 31.213 48.5525 31.5719C48.2533 31.9309 48.1038 32.3496 48.1038 32.8282V81.0164ZM132.026 22.9573L119.553 59.8387V81.0164H106.99V59.8387L94.5168 22.9573H106.362L113.272 47.1859L120.181 22.9573H132.026Z" fill="#0D0D0D"/>
<path d="M2.69208 55.2499C7.71728 52.6774 10.2299 47.054 10.2299 38.3795C10.2299 28.6282 13.251 22.2271 19.2932 19.1761L20.37 21.4195C15.4047 23.9321 12.922 29.5854 12.922 38.3795C12.922 46.7549 10.7683 52.498 6.46098 55.6088C10.7683 58.7197 12.922 64.4627 12.922 72.8381C12.922 81.6322 15.4047 87.2856 20.37 89.7982L19.2932 92.0416C13.251 88.9905 10.2299 82.5894 10.2299 72.8381C10.2299 64.1636 7.71728 58.5402 2.69208 55.9678V55.2499Z" fill="#0D0D0D"/>
<path d="M162.801 54.4008C157.486 51.68 154.828 45.7321 154.828 36.5572C154.828 26.2433 151.633 19.4729 145.242 16.2458L144.103 18.6187C149.355 21.2762 151.981 27.2557 151.981 36.5572C151.981 45.4157 154.259 51.4902 158.815 54.7805C154.259 58.0708 151.981 64.1452 151.981 73.0038C151.981 82.3052 149.355 88.2847 144.103 90.9423L145.242 93.3151C151.633 90.0881 154.828 83.3176 154.828 73.0038C154.828 63.8288 157.486 57.881 162.801 55.1601V54.4008Z" fill="#0D0D0D"/>
</svg>
