<svg width="224" height="59" viewBox="0 0 224 59" fill="none" xmlns="http://www.w3.org/2000/svg">
<path fill-rule="evenodd" clip-rule="evenodd" d="M176.158 32.421C177.419 31.867 179.782 30.7152 183.241 28.9901C186.048 27.7717 189.759 28.4975 194.389 31.1605C197.71 33.1188 201.751 36.3043 206.525 40.7012C211.619 45.4189 217.413 51.5199 223.912 58.9988H0C0.841512 53.3905 9.55993 46.3095 26.1605 37.7559C43.131 29.0585 55.1208 22.5315 62.1334 18.1907C71.4339 12.486 77.0019 9.16373 78.8234 8.2258C85.6028 4.67917 92.2385 2.26859 98.7374 1.00808C105.655 -0.347107 113.092 0.822239 121.036 4.51437C127.165 7.36325 134.856 12.4579 144.107 19.8001C150.887 25.1279 156.428 28.8253 160.729 30.88C163.816 32.421 166.879 33.2906 169.919 33.4747C172.068 33.6605 174.144 33.3116 176.157 32.421H176.158Z" fill="#BC9900"/>
<path fill-rule="evenodd" clip-rule="evenodd" d="M178.192 43.1521C181.698 42.6857 184.06 42.4946 185.273 42.5911C187.985 42.7822 190.58 43.8095 193.059 45.6784C196.846 48.5272 201.332 52.9732 206.523 58.9988H15.0088C15.6118 55.9168 19.2356 52.0335 25.8783 47.3561C31.2061 43.6184 39.3144 38.8235 50.2103 32.982C56.6601 29.5248 65.5223 24.0322 76.788 16.5059C86.5128 10.6574 95.1348 7.74017 102.666 7.74017C111.22 7.74017 121.877 12.1564 134.642 20.9905C141.278 25.5732 148.55 31.1816 156.453 37.8242C159.631 40.0157 163.534 41.583 168.164 42.5227C171.951 43.2678 175.292 43.4817 178.19 43.1521H178.192Z" fill="#514201"/>
<path fill-rule="evenodd" clip-rule="evenodd" d="M158.977 48.4115C162.764 51.0272 169.777 54.5616 180.015 58.9988H34.5721C35.5574 57.7874 37.1949 56.171 39.4827 54.1636C44.0146 50.1436 49.5563 46.0763 56.1026 41.9599C72.0931 32.0038 82.7768 25.5522 88.1519 22.6069C92.3087 20.3138 97.2666 19.169 103.02 19.169C110.868 19.169 118.559 21.5532 126.092 26.3183C133.241 30.8116 140.138 35.3453 146.774 39.9263C150.375 42.4052 154.444 45.2348 158.977 48.4115Z" fill="#2B1736"/>
</svg>
