<svg width="24" height="24" viewBox="0 0 24 24" fill="none" xmlns="http://www.w3.org/2000/svg">
<path d="M12 0C5.373 0 0 5.373 0 12C0 18.627 5.373 24 12 24C18.627 24 24 18.627 24 12C24 5.373 18.627 0 12 0ZM12.869 5.903L15.983 10.47L15.008 11.135L11.893 6.568L12.869 5.903ZM10.057 8.488L14.897 11.326L14.297 12.343L9.455 9.505L10.057 8.488ZM8.781 11.212L14.194 12.733L13.903 13.81L8.475 12.352L8.781 11.212ZM8.193 13.673L13.88 14.242L13.777 15.362L8.086 14.849L8.193 13.673ZM8.024 15.833H13.859V17H8.024V15.833ZM16 19H6V13H7V18H15V13H16V19ZM16.195 10.398L15.25 4.952L16.412 4.75L17.359 10.196L16.195 10.398Z" fill="black"/>
</svg>
